<svg width="90" height="90" viewBox="0 0 90 90" fill="none" xmlns="http://www.w3.org/2000/svg">
<g clip-path="url(#clip0_109_77)">
<path d="M33.5594 71.8841C33.2032 71.8841 32.8496 71.7438 32.5878 71.4714L12.8904 51.0676C12.6475 50.8168 12.5126 50.4796 12.5126 50.1317V43.2297C12.5126 41.6114 13.4842 40.19 14.9903 39.6075C31.5568 33.2018 70.5088 18.3001 74.3927 18.3001C79.0134 18.3001 83.375 20.4093 86.3574 24.0882C89.2858 27.6969 90.414 32.3765 89.4505 36.9184C88.1738 42.9492 83.2589 47.7366 77.2213 48.8263C73.7557 49.4547 70.2335 48.9018 67.1783 47.2781L49.8317 69.7102C48.7548 71.1019 46.852 71.5766 45.211 70.8646C42.9385 69.8747 38.5094 68.6583 34.3421 71.6332C34.1073 71.8032 33.832 71.8841 33.5594 71.8841ZM15.2116 49.5896L33.7565 68.8012C38.701 65.8749 43.6726 67.2531 46.2933 68.3967C46.8035 68.6151 47.3783 68.483 47.6995 68.0649L65.7721 44.6943C66.1958 44.1413 66.9758 44.0038 67.5669 44.3841C70.3199 46.1426 73.4858 46.7657 76.7462 46.175C81.7151 45.2768 85.7636 41.3363 86.8135 36.3628C87.6178 32.5626 86.711 28.8081 84.263 25.79C81.8312 22.7908 78.1416 21.0026 74.3954 21.0026C72.0716 21.0215 48.5902 29.5121 15.9673 42.1293C15.5085 42.3046 15.2143 42.7415 15.2143 43.2351V49.5896H15.2116Z" fill="#88E4F5" fill-opacity="0.84"/>
<path d="M19.7108 33.5821C19.0064 33.5821 18.3047 33.4283 17.6434 33.1263C16.4423 32.5734 15.5274 31.5889 15.0685 30.3482C14.1212 27.7886 15.4356 24.9378 17.9943 23.9884L20.1589 23.19C22.7148 22.2352 25.5731 23.5541 26.5204 26.111C27.4678 28.6706 26.1561 31.5215 23.5974 32.4709L21.4355 33.2692C20.8714 33.4796 20.2911 33.5821 19.7108 33.5821ZM21.8727 25.577C21.6136 25.577 21.3491 25.6228 21.0927 25.7172L18.9308 26.5183C17.7675 26.9498 17.1684 28.2498 17.6002 29.4123C18.0321 30.5775 19.333 31.1708 20.4962 30.742L22.6582 29.9436C23.8241 29.5121 24.4206 28.2121 23.9915 27.0496C23.6541 26.1407 22.7904 25.577 21.8727 25.577Z" fill="#88E4F5" fill-opacity="0.84"/>
<path d="M33.2275 28.5816C32.523 28.5816 31.8213 28.4278 31.16 28.1258C29.959 27.5728 29.044 26.5884 28.5852 25.3477C28.1263 24.1097 28.1749 22.7638 28.7282 21.5636C29.2815 20.3634 30.2666 19.4491 31.5082 18.9906L33.6701 18.1895C34.9143 17.731 36.2584 17.7822 37.4595 18.3352C38.6606 18.8881 39.5755 19.8725 40.0344 21.1132C40.9844 23.6728 39.67 26.5237 37.1113 27.4703L34.9494 28.2714C34.3907 28.4791 33.8077 28.5816 33.2275 28.5816ZM35.3894 20.5765C35.1303 20.5765 34.8658 20.6223 34.6094 20.7167L32.4474 21.5178C31.8834 21.7281 31.4326 22.1435 31.1816 22.691C30.9306 23.2358 30.9063 23.8481 31.1168 24.4118C31.5487 25.5797 32.855 26.1757 34.0129 25.7442L36.1748 24.9431C36.7389 24.7328 37.1869 24.3174 37.4379 23.7726C37.6889 23.2251 37.7132 22.6128 37.5027 22.0491C37.168 21.1402 36.307 20.5765 35.3894 20.5765Z" fill="#88E4F5" fill-opacity="0.84"/>
<path d="M46.7414 23.5811C46.0369 23.5811 45.3352 23.4273 44.6739 23.1252C43.4729 22.5723 42.5579 21.5879 42.0991 20.3472C41.6403 19.1092 41.6915 17.7633 42.2448 16.5631C42.7981 15.3629 43.7833 14.4486 45.0248 13.9901L47.1867 13.1917C48.4256 12.7305 49.7724 12.7817 50.9734 13.3346C52.1745 13.8876 53.0894 14.872 53.5483 16.1127C54.0071 17.3507 53.9558 18.6966 53.4025 19.8968C52.8492 21.097 51.8641 22.0113 50.6225 22.4698L48.466 23.2709C47.9046 23.4786 47.3217 23.5811 46.7414 23.5811ZM48.9114 15.576C48.6469 15.576 48.3824 15.6218 48.126 15.7162L45.9614 16.5173C45.3973 16.7276 44.9492 17.143 44.6955 17.6905C44.4445 18.238 44.4202 18.8476 44.6308 19.414C44.8413 19.9777 45.2569 20.4254 45.8048 20.6789C46.35 20.9298 46.9627 20.9541 47.5295 20.7437L49.6914 19.9426C50.2555 19.7322 50.7035 19.3169 50.9572 18.7694C51.2082 18.2219 51.2325 17.6123 51.022 17.0459C50.8115 16.4822 50.3958 16.0345 49.8479 15.7836C49.5483 15.6461 49.2299 15.576 48.9114 15.576Z" fill="#88E4F5" fill-opacity="0.84"/>
<path d="M60.258 18.5806C59.5536 18.5806 58.8518 18.4296 58.1933 18.1275C56.9895 17.5746 56.0746 16.5901 55.6157 15.3494C54.6684 12.7926 55.9801 9.93898 58.5387 8.98959L60.7007 8.19124C63.2539 7.24185 66.1149 8.55535 67.0622 11.1149C67.521 12.3529 67.4725 13.6988 66.9192 14.899C66.3659 16.0992 65.3807 17.0136 64.1392 17.4721L61.9773 18.2704C61.4186 18.4781 60.8383 18.5806 60.258 18.5806ZM62.4226 10.5755C62.1581 10.5755 61.8936 10.6241 61.6372 10.7158L59.4753 11.5141C58.3093 11.9457 57.7129 13.2457 58.1447 14.4108C58.3552 14.9745 58.7709 15.4223 59.3161 15.6731C59.864 15.9239 60.4739 15.9509 61.0407 15.7378L63.2026 14.9395C63.7667 14.7291 64.2148 14.3137 64.4658 13.7662C64.7168 13.2214 64.7411 12.6091 64.5305 12.0454C64.3254 11.4844 63.9098 11.034 63.3646 10.7832C63.065 10.6456 62.7438 10.5755 62.4226 10.5755Z" fill="#88E4F5" fill-opacity="0.84"/>
<path d="M2.07552 62.5439C1.70846 62.5439 1.34139 62.3929 1.07419 62.0989C0.574872 61.546 0.618056 60.6937 1.17135 60.192L13.1253 49.3954C13.6785 48.8964 14.5314 48.9396 15.0335 49.4925C15.5328 50.0454 15.4896 50.8977 14.9363 51.3994L2.98239 62.196C2.72328 62.4306 2.3994 62.5439 2.07552 62.5439Z" fill="#88E4F5" fill-opacity="0.84"/>
<path d="M8.56664 69.2193C8.19957 69.2193 7.83251 69.0683 7.56531 68.7743C7.06599 68.2214 7.10918 67.3691 7.66247 66.8674L19.6164 56.0681C20.167 55.5691 21.0226 55.6123 21.5246 56.1652C22.0239 56.7181 21.9807 57.5704 21.4274 58.0721L9.47081 68.8714C9.2144 69.1034 8.88782 69.2193 8.56664 69.2193Z" fill="#88E4F5" fill-opacity="0.84"/>
<path d="M15.0577 75.8921C14.6907 75.8921 14.3236 75.741 14.0564 75.447C13.5571 74.8941 13.6003 74.0418 14.1536 73.5402L26.1048 62.7408C26.6581 62.2419 27.5109 62.285 28.013 62.8379C28.5123 63.3909 28.4691 64.2431 27.9158 64.7448L15.9646 75.5441C15.7055 75.7788 15.3816 75.8921 15.0577 75.8921Z" fill="#88E4F5" fill-opacity="0.84"/>
<path d="M21.5488 82.5648C21.1818 82.5648 20.8147 82.4138 20.5475 82.1198C20.0482 81.5669 20.0914 80.7146 20.6447 80.2129L32.5959 69.4163C33.1492 68.9173 34.0021 68.9604 34.5041 69.5134C35.0034 70.0663 34.9602 70.9186 34.4069 71.4202L22.453 82.2169C22.1966 82.4515 21.8727 82.5648 21.5488 82.5648Z" fill="#88E4F5" fill-opacity="0.84"/>
</g>
<defs>
<clipPath id="clip0_109_77">
<rect width="89.0618" height="89" fill="white" transform="translate(0.726013 0.7229)"/>
</clipPath>
</defs>
</svg>
