<svg width="59" height="77" viewBox="0 0 59 77" fill="none" xmlns="http://www.w3.org/2000/svg">
<path d="M1.90866 1.7229V0.7229H0.908661V1.7229H1.90866ZM57.9475 1.7229H58.9475V0.7229H57.9475V1.7229ZM57.9475 75.7229V76.7229H58.9475V75.7229H57.9475ZM1.90866 75.7229H0.908661V76.7229H1.90866V75.7229ZM10.9149 12.7229V11.7229H9.91491V12.7229H10.9149ZM24.9246 12.7229H25.9246V11.7229H24.9246V12.7229ZM24.9246 26.7229V27.7229H25.9246V26.7229H24.9246ZM10.9149 26.7229H9.91491V27.7229H10.9149V26.7229ZM10.9149 31.7229V30.7229H9.91491V31.7229H10.9149ZM24.9246 31.7229H25.9246V30.7229H24.9246V31.7229ZM24.9246 45.7229V46.7229H25.9246V45.7229H24.9246ZM10.9149 45.7229H9.91491V46.7229H10.9149V45.7229ZM10.9149 50.7229V49.7229H9.91491V50.7229H10.9149ZM24.9246 50.7229H25.9246V49.7229H24.9246V50.7229ZM24.9246 64.7229V65.7229H25.9246V64.7229H24.9246ZM10.9149 64.7229H9.91491V65.7229H10.9149V64.7229ZM19.2319 23.9944L18.3579 24.4803L19.2933 26.1629L20.132 24.4301L19.2319 23.9944ZM19.2319 41.9944L18.3579 42.4803L19.2933 44.1629L20.132 42.4301L19.2319 41.9944ZM1.90866 2.7229H57.9475V0.7229H1.90866V2.7229ZM56.9475 1.7229V75.7229H58.9475V1.7229H56.9475ZM57.9475 74.7229H1.90866V76.7229H57.9475V74.7229ZM2.90866 75.7229V1.7229H0.908661V75.7229H2.90866ZM10.9149 13.7229H24.9246V11.7229H10.9149V13.7229ZM23.9246 12.7229V26.7229H25.9246V12.7229H23.9246ZM24.9246 25.7229H10.9149V27.7229H24.9246V25.7229ZM11.9149 26.7229V12.7229H9.91491V26.7229H11.9149ZM10.9149 32.7229H24.9246V30.7229H10.9149V32.7229ZM23.9246 31.7229V45.7229H25.9246V31.7229H23.9246ZM24.9246 44.7229H10.9149V46.7229H24.9246V44.7229ZM11.9149 45.7229V31.7229H9.91491V45.7229H11.9149ZM10.9149 51.7229H24.9246V49.7229H10.9149V51.7229ZM23.9246 50.7229V64.7229H25.9246V50.7229H23.9246ZM24.9246 63.7229H10.9149V65.7229H24.9246V63.7229ZM11.9149 64.7229V50.7229H9.91491V64.7229H11.9149ZM47.9406 25.7229H30.9288V27.7229H47.9406V25.7229ZM47.9406 44.7229H30.9288V46.7229H47.9406V44.7229ZM47.9406 63.7229H30.9288V65.7229H47.9406V63.7229ZM13.3544 15.4803L18.3579 24.4803L20.1059 23.5085L15.1025 14.5085L13.3544 15.4803ZM26.3497 6.99312L18.3318 23.5588L20.132 24.4301L28.1499 7.86444L26.3497 6.99312ZM13.3544 33.4803L18.3579 42.4803L20.1059 41.5085L15.1025 32.5085L13.3544 33.4803ZM26.3497 24.9931L18.3318 41.5588L20.132 42.4301L28.1499 25.8644L26.3497 24.9931Z" fill="#88E4F5" fill-opacity="0.84"/>
</svg>
