<svg width="126" height="83" viewBox="0 0 126 83" fill="none" xmlns="http://www.w3.org/2000/svg">
<path d="M0.0913086 81.9729H121.554M3.62904 81.9729H125.091M3.62904 1.9729H43.7234V71.2266H3.62904V1.9729ZM81.4592 1.9729H121.554V71.2266H81.4592V1.9729ZM31.9309 22.2714C31.9309 26.8875 28.2352 30.6296 23.6762 30.6296C19.1173 30.6296 15.4215 26.8875 15.4215 22.2714C15.4215 17.6553 19.1173 13.9132 23.6762 13.9132C28.2352 13.9132 31.9309 17.6553 31.9309 22.2714ZM109.761 22.2714C109.761 26.8875 106.065 30.6296 101.506 30.6296C96.9474 30.6296 93.2517 26.8875 93.2517 22.2714C93.2517 17.6553 96.9474 13.9132 101.506 13.9132C106.065 13.9132 109.761 17.6553 109.761 22.2714ZM34.2894 50.9281C34.2894 56.8631 29.5377 61.6744 23.6762 61.6744C17.8147 61.6744 13.063 56.8631 13.063 50.9281C13.063 44.9931 17.8147 40.1819 23.6762 40.1819C29.5377 40.1819 34.2894 44.9931 34.2894 50.9281ZM112.12 50.9281C112.12 56.8631 107.368 61.6744 101.506 61.6744C95.6449 61.6744 90.8932 56.8631 90.8932 50.9281C90.8932 44.9931 95.6449 40.1819 101.506 40.1819C107.368 40.1819 112.12 44.9931 112.12 50.9281Z" stroke="#88E4F5" stroke-opacity="0.84" stroke-width="2"/>
</svg>
