<svg width="41" height="41" viewBox="0 0 41 41" fill="none" xmlns="http://www.w3.org/2000/svg">
<path d="M12.3023 1.23324H12.8023V1.22363H28.7071C34.6717 1.22363 39.5541 6.20832 39.5541 12.3357V29.1096C39.5541 35.2373 34.6714 40.2217 28.7165 40.2217H12.3023C6.33642 40.2217 1.44589 35.2452 1.44589 29.1289V12.3453C1.44589 6.21848 6.33722 1.23324 12.3023 1.23324ZM3.45422 12.3539V12.3549V29.1385C3.45422 34.1246 7.38178 38.1553 12.3023 38.1553H28.7165C33.6197 38.1553 37.5458 34.1231 37.5458 29.1193V12.3453C37.5458 7.34103 33.6194 3.30928 28.7071 3.30928H12.3023C7.38956 3.30928 3.46414 7.34136 3.45422 12.3539Z" fill="white" stroke="white"/>
<path fill-rule="evenodd" clip-rule="evenodd" d="M20.5094 9.96135C14.7184 9.96135 9.98028 14.8061 9.98028 20.7275C9.98028 26.6488 14.7184 31.4936 20.5094 31.4936C26.3005 31.4936 31.0386 26.6488 31.0386 20.7275C31.0386 14.8061 26.3005 9.96135 20.5094 9.96135ZM20.5094 13.0374C24.6835 13.0374 28.0302 16.4595 28.0302 20.7275C28.0302 24.9955 24.6835 28.4175 20.5094 28.4175C16.3354 28.4175 12.9886 24.9955 12.9886 20.7275C12.9886 16.4595 16.3354 13.0374 20.5094 13.0374Z" fill="#88E4F5"/>
<path d="M32.5427 6.88531C31.706 6.88531 31.0386 7.56781 31.0386 8.42333C31.0386 9.27885 31.706 9.96135 32.5427 9.96135C33.3794 9.96135 34.0469 9.27885 34.0469 8.42333C34.0469 7.56781 33.3794 6.88531 32.5427 6.88531Z" fill="#88E4F5"/>
</svg>
