<svg width="41" height="41" viewBox="0 0 41 41" fill="none" xmlns="http://www.w3.org/2000/svg">
<path fill-rule="evenodd" clip-rule="evenodd" d="M0.945892 8.16584C0.945892 4.08849 4.31173 0.722656 8.38907 0.722656H33.5027C37.5801 0.722656 40.9459 4.08849 40.9459 8.16584V33.2795C40.9459 37.3568 37.5801 40.7227 33.5027 40.7227H8.38907C4.31173 40.7227 0.945892 37.3568 0.945892 33.2795V8.16584ZM33.5027 4.35902H8.38907C6.27733 4.35902 4.58226 6.05409 4.58226 8.16584V33.2795C4.58226 35.3912 6.27733 37.0863 8.38907 37.0863H33.5027C35.6145 37.0863 37.3095 35.3912 37.3095 33.2795V8.16584C37.3095 6.05409 35.6145 4.35902 33.5027 4.35902Z" fill="white"/>
<path d="M20.4345 13.8477C19.1 13.8349 17.9495 13.874 17.3095 14.1886C16.8841 14.3977 16.5413 14.8431 16.7413 14.8704C16.9886 14.9031 17.5813 15.0349 17.8777 15.4386C18.2613 15.9604 18.2186 17.1431 18.2186 17.1431C18.2186 17.1431 18.4418 20.3777 17.7073 20.7795C17.2036 21.054 16.5223 20.4472 15.0368 17.8817C14.275 16.5672 13.73 15.1545 13.73 15.1545C13.73 15.1545 13.5873 14.8454 13.3891 14.6999C13.1491 14.5236 12.8209 14.4727 12.8209 14.4727L9.29817 14.5295C9.29817 14.5295 8.75407 14.524 8.55953 14.7567C8.38498 14.964 8.50271 15.3817 8.50271 15.3817C8.50271 15.3817 11.3159 21.9295 14.4686 25.2113C17.3632 28.2186 20.6618 27.9954 20.6618 27.9954H22.1391C22.1391 27.9954 22.5918 27.9586 22.8209 27.7113C23.0318 27.484 22.9913 27.0295 22.9913 27.0295C22.9913 27.0295 22.975 25.0495 23.9004 24.7567C24.8132 24.4677 26.0091 26.6881 27.2527 27.5408C28.1927 28.1863 28.9004 28.0522 28.9004 28.0522L32.1959 27.9954C32.1959 27.9954 33.9286 27.8854 33.105 26.5181C33.0377 26.4072 32.6527 25.5245 30.6618 23.6772C28.5782 21.7427 28.8327 22.0227 31.3436 18.6772C32.8727 16.639 33.5232 15.4031 33.3323 14.8704C33.1504 14.3631 32.0254 14.5295 32.0254 14.5295H28.2754C28.2754 14.5295 27.9695 14.5195 27.7641 14.6431C27.5623 14.7631 27.4232 15.0408 27.4232 15.0408C27.4232 15.0408 26.8486 16.5967 26.0595 17.9386C24.3941 20.7677 23.7186 20.8972 23.4459 20.7227C22.8113 20.3136 22.9913 19.099 22.9913 18.2227C22.9913 15.4808 23.4213 14.3145 22.1959 14.0181C21.7886 13.9199 21.4763 13.8586 20.4345 13.8477Z" fill="#88E4F5"/>
</svg>
